<svg xmlns="http://www.w3.org/2000/svg" viewBox="0 0 64 64" role="img" aria-label="pats2sats">
  <rect width="64" height="64" rx="12" fill="#101114"/>
  <path d="M18 44V16h15.5c6.3 0 10.6 3.7 10.6 9.3 0 5.7-4.3 9.4-10.6 9.4H25v9.3h-7Zm7-15.2h7.7c2.7 0 4.4-1.3 4.4-3.5 0-2.1-1.7-3.4-4.4-3.4H25v6.9Z" fill="#f4a261"/>
  <path d="M40.5 46.5c-6.1 0-10.5-2.6-12.8-6.8l5.8-3.2c1.5 2.5 3.8 3.8 7.1 3.8 2.8 0 4.4-.8 4.4-2.2 0-1.5-1.8-2-6.1-2.9-5.3-1-10-2.8-10-8.7 0-5.5 4.7-8.9 11.2-8.9 5.1 0 9.1 2 11.4 5.6l-5.5 3.5c-1.2-1.8-3.1-2.8-5.7-2.8-2.5 0-4 .8-4 2.1 0 1.5 1.7 2 6 2.8 5.5 1.1 10.2 2.8 10.2 8.7 0 5.6-4.7 9-12 9Z" fill="#5ee0b5"/>
</svg>
